<svg width="181" height="180" viewBox="0 0 181 180" fill="none" xmlns="http://www.w3.org/2000/svg">
<path d="M134.192 40L126.159 129.99L90.0505 140L54.0415 130.004L46.017 40H134.192Z" fill="#264DE4"/>
<path d="M119.282 124.259L126.147 47.3591H90.1045V132.348L119.282 124.259Z" fill="#2965F1"/>
<path d="M64.4129 80.7402L65.4023 91.7787H90.1045V80.7402H64.4129Z" fill="#EBEBEB"/>
<path d="M90.1045 58.3977H90.0663H62.425L63.4284 69.4364H90.1045V58.3977Z" fill="#EBEBEB"/>
<path d="M90.1045 120.893V109.408L90.0561 109.421L77.7624 106.102L76.9765 97.2979H71.0027H65.8955L67.442 114.63L90.0537 120.907L90.1045 120.893Z" fill="#EBEBEB"/>
<path d="M103.659 91.7785L102.378 106.095L90.0663 109.418V120.902L112.696 114.63L112.862 112.765L115.456 83.7042L115.725 80.7401L117.718 58.3977H90.0663V69.4364H105.621L104.616 80.7401H90.0663V91.7785H103.659Z" fill="white"/>
</svg>
