<svg width="72" height="57" viewBox="0 0 72 57" fill="none" xmlns="http://www.w3.org/2000/svg">
<path d="M63 30.875H21C20.2044 30.875 19.4413 30.6248 18.8787 30.1794C18.3161 29.734 18 29.1299 18 28.5C18 27.8701 18.3161 27.266 18.8787 26.8206C19.4413 26.3752 20.2044 26.125 21 26.125H63C63.7956 26.125 64.5587 26.3752 65.1213 26.8206C65.6839 27.266 66 27.8701 66 28.5C66 29.1299 65.6839 29.734 65.1213 30.1794C64.5587 30.6248 63.7956 30.875 63 30.875Z" fill="white"/>
<path d="M63 45.125H33C32.2043 45.125 31.4413 44.8748 30.8787 44.4294C30.3161 43.984 30 43.3799 30 42.75C30 42.1201 30.3161 41.516 30.8787 41.0706C31.4413 40.6252 32.2043 40.375 33 40.375H63C63.7956 40.375 64.5587 40.6252 65.1213 41.0706C65.6839 41.516 66 42.1201 66 42.75C66 43.3799 65.6839 43.984 65.1213 44.4294C64.5587 44.8748 63.7956 45.125 63 45.125ZM63 16.625H9C8.20435 16.625 7.44129 16.3748 6.87868 15.9294C6.31607 15.484 6 14.8799 6 14.25C6 13.6201 6.31607 13.016 6.87868 12.5706C7.44129 12.1252 8.20435 11.875 9 11.875H63C63.7956 11.875 64.5587 12.1252 65.1213 12.5706C65.6839 13.016 66 13.6201 66 14.25C66 14.8799 65.6839 15.484 65.1213 15.9294C64.5587 16.3748 63.7956 16.625 63 16.625Z" fill="white"/>
</svg>
