<svg width="39" height="37" viewBox="0 0 39 37" fill="none" xmlns="http://www.w3.org/2000/svg">
<rect width="38.8088" height="36.0474" transform="translate(0.191101 0.897034)" fill="white" fill-opacity="0.88"/>
<path d="M19.5955 4.27649C10.8884 4.27649 3.82944 10.8332 3.82944 18.9208C3.82944 25.8357 8.99101 31.6275 15.9299 33.1629C15.5709 33.0834 15.215 32.9945 14.8657 32.8931V29.5378C14.8657 29.5378 14.2745 29.7209 13.4862 29.7209C11.2807 29.7209 10.3645 27.8932 10.1359 26.9751C9.99701 26.4158 9.63439 25.8858 9.24509 25.5619C8.77999 25.1767 8.56229 25.1755 8.55926 25.0437C8.5532 24.7672 8.95827 24.7785 9.15049 24.7785C10.1359 24.7785 10.8829 25.7523 11.2298 26.2558C12.089 27.4989 13.0114 27.7073 13.4862 27.7073C14.0774 27.7073 14.588 27.6251 14.9397 27.4674C15.1022 26.404 15.6116 25.4566 16.4423 24.7785C12.7452 24.0919 10.1359 22.1222 10.1359 18.9208C10.1359 17.2716 10.8484 15.7559 12.0357 14.532C11.9144 14.2126 11.7125 13.5666 11.7125 12.5139C11.7125 11.8183 11.7646 10.9644 12.1066 10.1342C12.1066 10.1342 14.3551 10.1488 16.4757 12.0143C17.4544 11.7496 18.5016 11.5986 19.5955 11.5986C20.6894 11.5986 21.7367 11.7496 22.7154 12.0143C24.8359 10.1488 27.0844 10.1342 27.0844 10.1342C27.4282 10.9644 27.4786 11.8183 27.4786 12.5139C27.4786 13.6488 27.3161 14.3106 27.2166 14.5962C28.3675 15.8088 29.0552 17.3009 29.0552 18.9208C29.0552 22.1222 26.4459 24.0919 22.7487 24.7785C23.7359 25.5839 24.3253 26.7571 24.3253 28.0734V32.8931C23.9761 32.995 23.6207 33.0834 23.2611 33.1629C30.2 31.6275 35.3616 25.8357 35.3616 18.9208C35.3616 10.8332 28.3026 4.27649 19.5955 4.27649ZM20.6949 33.5256C20.3317 33.5492 19.9654 33.565 19.5955 33.565C19.9654 33.565 20.3311 33.5487 20.6949 33.5256ZM19.5955 33.565C19.2256 33.565 18.8594 33.5492 18.4961 33.5256C18.86 33.5487 19.2256 33.565 19.5955 33.565ZM18.2542 33.5087C17.5162 33.4507 16.7922 33.3459 16.087 33.1967C16.7928 33.3454 17.5162 33.4507 18.2542 33.5087Z" fill="black"/>
</svg>
