<svg width="20" height="18" viewBox="0 0 20 18" fill="none" xmlns="http://www.w3.org/2000/svg">
<rect width="20" height="18" fill="white" fill-opacity="0.58"/>
<path d="M10 1.6875C5.51281 1.6875 1.875 4.96153 1.875 9C1.875 12.4529 4.535 15.345 8.11094 16.1117V16.1117C7.78432 16.0417 7.5625 15.7462 7.5625 15.4121V15.0204C7.5625 14.6621 7.20982 14.393 6.85156 14.393V14.393C5.715 14.393 5.24281 13.4803 5.125 13.0219C5.05344 12.7426 4.86656 12.4779 4.66594 12.3162C4.42625 12.1238 4.31406 12.1233 4.3125 12.0575C4.30938 11.9194 4.51812 11.925 4.61719 11.925C5.125 11.925 5.51 12.4113 5.68875 12.6627C6.13156 13.2834 6.60687 13.3875 6.85156 13.3875C7.01431 13.3875 7.1652 13.3758 7.29809 13.3529C7.49144 13.3195 7.61422 13.1466 7.67152 12.9589V12.9589C7.81582 12.4864 7.61035 11.7668 7.15126 11.5841C5.91901 11.0936 5.125 10.2284 5.125 9C5.125 8.51262 5.25362 8.04859 5.48545 7.62429C5.78462 7.07677 5.9375 6.4247 5.9375 5.80078V5.80078V5.80078C5.9375 5.06553 6.6367 4.60935 7.31585 4.89105C7.36905 4.91311 7.42323 4.93692 7.4782 4.96262C8.09707 5.25195 8.78466 5.42417 9.46538 5.3664C9.64086 5.3515 9.81919 5.34375 10 5.34375C10.1804 5.34375 10.3583 5.35147 10.5334 5.36629C11.2149 5.424 11.9033 5.25155 12.523 4.96208C12.5775 4.9366 12.6313 4.91298 12.6841 4.89108C13.3635 4.60925 14.0625 5.06521 14.0625 5.80078V5.80078V5.80078C14.0625 6.4447 14.2516 7.11493 14.5477 7.68673C14.7587 8.09404 14.875 8.53654 14.875 9C14.875 10.028 14.3189 10.8017 13.4152 11.3142C12.7734 11.6782 12.4375 12.8324 12.4375 13.5703V13.5703V15.4121C12.4375 15.7463 12.2158 16.0418 11.8891 16.1117V16.1117C15.465 15.345 18.125 12.4529 18.125 9C18.125 4.96153 14.4872 1.6875 10 1.6875ZM10.5666 16.2928C10.3794 16.3046 10.1906 16.3125 10 16.3125C10.1906 16.3125 10.3791 16.3043 10.5666 16.2928ZM10 16.3125C9.80937 16.3125 9.62063 16.3046 9.43344 16.2928C9.62094 16.3043 9.80937 16.3125 10 16.3125ZM9.30875 16.2844C8.92844 16.2554 8.55531 16.2031 8.19188 16.1286C8.55563 16.2028 8.92844 16.2554 9.30875 16.2844Z" fill="black"/>
</svg>
