<svg width="42" height="45" viewBox="0 0 42 45" fill="none" xmlns="http://www.w3.org/2000/svg">
<path d="M36.167 34.3225C36.167 36.8846 34.2662 38.9607 31.9203 38.9607H9.83769C7.49269 38.9607 5.59103 36.8846 5.59103 34.3225V10.204C5.59103 7.64184 7.49269 5.5658 9.83769 5.5658H31.9203C34.2662 5.5658 36.167 7.64184 36.167 10.204V34.3225Z" fill="#0078D4"/>
<path opacity="0.05" d="M25.975 34.3225V24.9543C25.975 23.3875 25.2794 22.4515 24.1133 22.4515C23.4211 22.4515 22.9123 22.8773 22.6023 23.7168C22.5879 23.7762 22.5675 24.0183 22.576 24.7502L22.5777 34.3225H16.6324V16.6974H22.5777V17.6816C23.4457 17.0277 24.5099 16.6974 25.7525 16.6974C29.6144 16.6974 31.9195 19.5666 31.9195 24.3727L31.9203 34.3225H25.975ZM9.83771 34.3225V16.6974H12.7738C11.0726 16.6974 9.83771 15.3319 9.83771 13.4498C9.83771 11.5695 11.093 10.204 12.8223 10.204C14.5311 10.204 15.7482 11.5314 15.783 13.4312C15.783 15.3273 14.5269 16.6974 12.7976 16.6974H15.783V34.3225H9.83771Z" fill="black"/>
<path opacity="0.07" d="M26.3997 33.8587V24.9543C26.3997 23.1241 25.524 21.9877 24.1133 21.9877C23.0134 21.9877 22.4698 22.8337 22.2082 23.5434C22.1386 23.728 22.1479 24.4608 22.1513 24.7734L22.153 33.8587H17.057V17.1612H22.153V18.6807C22.8282 17.9173 23.9154 17.1612 25.7525 17.1612C29.3477 17.1612 31.4948 19.857 31.4948 24.3727L31.4957 33.8587H26.3997ZM10.2624 33.8587V17.1612H15.3583V33.8587H10.2624ZM12.7738 16.2336C11.3189 16.2336 10.2624 15.0629 10.2624 13.4498C10.2624 11.8375 11.3393 10.6678 12.8222 10.6678C14.2865 10.6678 15.3286 11.8079 15.3583 13.4405C15.3583 15.0629 14.2814 16.2336 12.7976 16.2336H12.7738Z" fill="black"/>
<path d="M10.687 18.5993H14.9337V34.3691H10.687V18.5993ZM12.7976 16.7441H12.7738C11.5066 16.7441 10.687 15.7125 10.687 14.424C10.687 13.1077 11.5321 12.1059 12.8223 12.1059C14.1141 12.1059 14.9099 13.1077 14.9337 14.424C14.9337 15.7116 14.1141 16.7441 12.7976 16.7441ZM31.071 34.3691H26.8243V25.9286C26.8243 23.8896 25.7839 22.4982 24.1133 22.4982C22.8384 22.4982 22.1488 23.4369 21.8141 24.3442C21.6918 24.6688 21.7284 25.5668 21.7284 26.0204V34.3691H17.4817V18.5993H21.7284V21.026C22.3407 19.9908 23.2996 18.5993 25.7525 18.5993C28.7914 18.5993 31.0702 20.6865 31.0702 25.3469L31.071 34.3691Z" fill="white"/>
</svg>
