<svg width="25" height="25" viewBox="0 0 25 25" fill="none" xmlns="http://www.w3.org/2000/svg">
<path d="M20.9821 19.2708C20.9821 20.7094 19.8165 21.875 18.378 21.875H4.83631C3.39829 21.875 2.23214 20.7094 2.23214 19.2708V5.72917C2.23214 4.29062 3.39829 3.125 4.83631 3.125H18.378C19.8165 3.125 20.9821 4.29062 20.9821 5.72917V19.2708Z" fill="white" fill-opacity="0.58"/>
<path opacity="0.05" d="M15.625 19.2708V14.0109C15.625 13.1312 15.1984 12.6057 14.4833 12.6057C14.0589 12.6057 13.7469 12.8447 13.5568 13.3161C13.5479 13.3494 13.5354 13.4854 13.5406 13.8963L13.5417 19.2708H9.89583V9.37496H13.5417V9.92756C14.074 9.56038 14.7266 9.37496 15.4885 9.37496C17.8568 9.37496 19.2703 10.9859 19.2703 13.6843L19.2708 19.2708H15.625ZM5.72916 19.2708V9.37496H7.52968C6.48646 9.37496 5.72916 8.60829 5.72916 7.55152C5.72916 6.49579 6.49896 5.72913 7.55937 5.72913C8.60729 5.72913 9.35364 6.47444 9.375 7.5411C9.375 8.60569 8.60468 9.37496 7.54427 9.37496H9.375V19.2708H5.72916Z" fill="black"/>
<path opacity="0.07" d="M15.8854 19.0105V14.011C15.8854 12.9834 15.3484 12.3454 14.4833 12.3454C13.8089 12.3454 13.4755 12.8204 13.3151 13.2188C13.2724 13.3224 13.2781 13.7339 13.2802 13.9094L13.2813 19.0105H10.1563V9.63546H13.2813V10.4886C13.6953 10.0599 14.362 9.63546 15.4885 9.63546C17.6932 9.63546 19.0099 11.149 19.0099 13.6844L19.0104 19.0105H15.8854ZM5.98959 19.0105V9.63546H9.11459V19.0105H5.98959ZM7.52969 9.11462C6.6375 9.11462 5.98959 8.45733 5.98959 7.5516C5.98959 6.64639 6.65 5.98962 7.55938 5.98962C8.45729 5.98962 9.09636 6.62973 9.11459 7.54639C9.11459 8.45733 8.45417 9.11462 7.54427 9.11462H7.52969Z" fill="black"/>
<path d="M6.25 10.4428H8.85417V19.297H6.25V10.4428ZM7.54427 9.40116H7.52969C6.7526 9.40116 6.25 8.822 6.25 8.09856C6.25 7.3595 6.76823 6.797 7.55937 6.797C8.35156 6.797 8.83958 7.3595 8.85417 8.09856C8.85417 8.82148 8.35156 9.40116 7.54427 9.40116ZM18.75 19.297H16.1458V14.5579C16.1458 13.4131 15.5078 12.6319 14.4833 12.6319C13.7016 12.6319 13.2786 13.159 13.0734 13.6684C12.9984 13.8506 13.0208 14.3548 13.0208 14.6095V19.297H10.4167V10.4428H13.0208V11.8053C13.3964 11.2241 13.9844 10.4428 15.4885 10.4428C17.3521 10.4428 18.7495 11.6147 18.7495 14.2314L18.75 19.297Z" fill="black"/>
</svg>
