<svg width="20" height="18" viewBox="0 0 20 18" fill="none" xmlns="http://www.w3.org/2000/svg">
<rect width="20" height="18" rx="3" fill="#FFFDFD" fill-opacity="0.58"/>
<path d="M15.3333 15.5626H15.1417C12.9823 15.3511 10.9077 14.6885 9.08333 13.6276C7.38848 12.6561 5.94948 11.3635 4.86666 9.84006C3.68513 8.19381 2.94876 6.32123 2.71666 4.37257C2.69013 4.14014 2.71633 3.90528 2.79369 3.68225C2.87104 3.45921 2.99793 3.25264 3.16666 3.07507C3.33078 2.89512 3.53335 2.74664 3.76238 2.63843C3.99141 2.53022 4.24223 2.46446 4.5 2.44507H6.66666C7.13593 2.4455 7.58956 2.59692 7.94563 2.872C8.30171 3.14708 8.53675 3.52768 8.60833 3.94507C8.6875 4.48123 8.83566 5.00727 9.05 5.51257C9.18033 5.8301 9.20725 6.17454 9.12758 6.50537C9.04783 6.8362 8.86483 7.13966 8.6 7.38007L8.09166 7.83756C8.892 8.97471 9.96558 9.93584 11.2333 10.6501L11.7417 10.2001C12.0087 9.96171 12.346 9.79701 12.7136 9.72524C13.0812 9.65354 13.4638 9.67776 13.8167 9.79506C14.3787 9.98616 14.963 10.1195 15.5583 10.1926C16.03 10.2564 16.4596 10.4729 16.7665 10.8016C17.0733 11.1303 17.2364 11.5484 17.225 11.9776V13.7776C17.225 14.2457 17.0189 14.6948 16.6519 15.0265C16.2849 15.3583 15.7868 15.5456 15.2667 15.5476L15.3333 15.5626ZM6.66666 3.56257H4.675C4.57721 3.56839 4.48174 3.59199 4.39437 3.63195C4.307 3.67191 4.22954 3.7274 4.16666 3.79507C4.10548 3.85845 4.05916 3.93233 4.03052 4.01224C4.00188 4.09215 3.9915 4.17645 4 4.26007C4.20207 6.02765 4.86135 7.72806 5.925 9.22506C6.90553 10.6101 8.2111 11.7851 9.75 12.6676C11.4144 13.6349 13.3058 14.2409 15.275 14.4376C15.3774 14.4427 15.4799 14.4288 15.576 14.3965C15.6721 14.3642 15.7597 14.3143 15.8333 14.2501C15.966 14.1277 16.0407 13.9636 16.0417 13.7926V12.0001C16.0454 11.8423 15.9847 11.6887 15.8711 11.5684C15.7574 11.4481 15.5987 11.3695 15.425 11.3476C14.7366 11.2642 14.0603 11.1133 13.4083 10.8976C13.2799 10.8544 13.1405 10.8448 13.0062 10.87C12.872 10.8952 12.7485 10.9542 12.65 11.0401L11.8167 11.7901C11.7191 11.8757 11.5933 11.9308 11.4582 11.947C11.3231 11.9632 11.1858 11.9397 11.0667 11.8801C9.2885 10.9757 7.81664 9.65369 6.80833 8.05506C6.73932 7.94856 6.71168 7.82436 6.72979 7.70211C6.7479 7.57994 6.81071 7.4666 6.90833 7.38007L7.74166 6.63007C7.83723 6.54308 7.90297 6.43319 7.93105 6.31351C7.95912 6.19382 7.94835 6.06939 7.9 5.95507C7.65932 5.36855 7.49164 4.75984 7.4 4.14007C7.37932 3.97902 7.29277 3.83066 7.15721 3.72391C7.02164 3.61715 6.84677 3.55964 6.66666 3.56257Z" fill="black"/>
</svg>
