<svg width="181" height="176" viewBox="0 0 181 176" fill="none" xmlns="http://www.w3.org/2000/svg">
<path d="M90.1045 96.6644C94.9736 96.6644 98.9208 92.8263 98.9208 88.0917C98.9208 83.3571 94.9736 79.519 90.1045 79.519C85.2355 79.519 81.2883 83.3571 81.2883 88.0917C81.2883 92.8263 85.2355 96.6644 90.1045 96.6644Z" fill="#61DAFB"/>
<path d="M90.1045 105.655C116.231 105.655 137.411 97.7918 137.411 88.0917C137.411 78.3916 116.231 70.5281 90.1045 70.5281C63.9778 70.5281 42.7979 78.3916 42.7979 88.0917C42.7979 97.7918 63.9778 105.655 90.1045 105.655Z" stroke="#61DAFB" stroke-width="5"/>
<path d="M74.4618 96.8734C87.5252 118.875 105.119 132.779 113.758 127.929C122.397 123.078 118.81 101.311 105.747 79.3099C92.6837 57.3085 75.0903 43.4046 66.4511 48.2546C57.812 53.1047 61.3985 74.8721 74.4618 96.8734Z" stroke="#61DAFB" stroke-width="5"/>
<path d="M74.4619 79.3098C61.3985 101.311 57.812 123.078 66.4512 127.929C75.0903 132.779 92.6837 118.875 105.747 96.8734C118.81 74.8721 122.397 53.1047 113.758 48.2546C105.119 43.4045 87.5252 57.3084 74.4619 79.3098Z" stroke="#61DAFB" stroke-width="5"/>
</svg>
