<svg width="192" height="181" viewBox="0 0 192 181" fill="none" xmlns="http://www.w3.org/2000/svg">
<path d="M42.8347 40.4851H148.912V140.485H42.8347V40.4851Z" fill="#017ACB"/>
<path d="M93.7684 77.5164H98.8569L106.862 82.032L85.0999 85.7976V122.641L84.7353 122.735C84.238 122.86 77.691 122.86 76.2822 122.719L75.1552 122.626V85.7976H61.3982V77.5164L65.7573 77.4695C68.1441 77.4382 74.2767 77.4382 79.3817 77.4695C84.4867 77.5007 90.9507 77.5164 93.7684 77.5164ZM132.603 118.735C130.58 120.751 128.41 121.876 124.796 122.798C123.222 123.204 122.956 123.219 119.409 123.204C115.862 123.188 115.581 123.188 113.857 122.766C109.399 121.688 105.802 119.579 103.349 116.594C102.652 115.751 101.509 114.001 101.509 113.782C101.509 113.719 101.674 113.579 101.89 113.485C102.105 113.391 102.553 113.126 102.918 112.923C103.282 112.719 103.945 112.344 104.393 112.126C104.84 111.907 106.134 111.188 107.26 110.548C108.388 109.907 109.415 109.391 109.531 109.391C109.647 109.391 109.862 109.61 110.028 109.876C111.023 111.454 113.343 113.469 114.984 114.157C115.995 114.563 118.233 115.016 119.309 115.016C120.304 115.016 122.128 114.61 123.106 114.188C124.15 113.735 124.68 113.282 125.31 112.376C125.741 111.735 125.791 111.563 125.774 110.344C125.774 109.219 125.708 108.907 125.376 108.391C124.448 106.954 123.189 106.204 118.083 104.079C112.812 101.876 110.442 100.563 108.52 98.7976C107.095 97.4851 106.812 97.1257 105.918 95.4851C104.757 93.3757 104.608 92.6882 104.592 89.5476C104.575 87.3445 104.625 86.6257 104.873 85.8757C105.221 84.7507 106.349 82.5789 106.862 82.032C107.923 80.8601 108.304 80.5007 109.051 79.9226C111.305 78.1726 114.818 77.0164 118.183 76.907C118.564 76.907 119.824 76.9695 121 77.0476C124.382 77.3132 126.686 78.0945 128.906 79.7664C130.58 81.0164 133.116 83.9539 132.868 84.3445C132.702 84.5789 126.089 88.7351 125.658 88.8601C125.393 88.9382 125.211 88.8445 124.846 88.4382C122.591 85.8914 121.68 85.3445 119.492 85.2195C117.935 85.1257 117.105 85.2976 116.061 85.9539C114.968 86.6414 114.437 87.6882 114.437 89.1414C114.453 91.2664 115.316 92.2664 118.498 93.7507C120.553 94.7039 122.31 95.4851 122.443 95.4851C122.641 95.4851 126.901 97.4851 128.012 98.1101C133.183 100.969 135.288 103.907 135.835 108.969C136.233 112.782 135.088 116.266 132.603 118.735Z" fill="white"/>
</svg>
